<svg xmlns="http://www.w3.org/2000/svg" version="1.1" xmlns:xlink="http://www.w3.org/1999/xlink" width="512" height="512" x="0" y="0" viewBox="0 0 512 512" style="enable-background:new 0 0 512 512" xml:space="preserve"><g><path fill="#C7EEFD" d="m155.307 351.643-19.133 13.079a9.135 9.135 0 0 1-9.422.537 9.138 9.138 0 0 1-4.873-8.082v-27.005h-63.29c-28.171 0-51.089 22.626-51.089 50.438v66.287a5.48 5.48 0 0 0 5.481 5.48h137.648l24.418-80.994zM309.447 411.065l-.508-2.002-22.852-4.891a6.655 6.655 0 0 1-5.262-6.508v-15.605a6.653 6.653 0 0 1 5.262-6.508l22.852-4.891.508-2.003a85.304 85.304 0 0 1 9.387-22.633l1.058-1.775-9.113-14.077h-52.096v27.005a9.141 9.141 0 0 1-14.296 7.545l-19.133-13.079-19.74 19.74 24.419 80.994h79.016l10.943-16.903-1.058-1.775a85.343 85.343 0 0 1-9.387-22.634z" opacity="1" data-original="#c7eefd"></path><path fill="#98E5FB" d="M49.438 446.897V380.61c0-27.812 22.918-50.438 51.089-50.438H58.589c-28.171 0-51.089 22.626-51.089 50.438v66.287a5.48 5.48 0 0 0 5.481 5.48h41.938a5.48 5.48 0 0 1-5.481-5.48z" opacity="1" data-original="#98e5fb"></path><path fill="#0592FB" d="m205.514 371.383-8.162 8.162c-3.89 3.889-10.253 3.889-14.143 0l-8.162-8.162-24.418 80.994h79.304z" opacity="1" data-original="#0592fb"></path><path fill="#0181FB" d="M197.352 379.545c-3.89 3.889-10.253 3.889-14.143 0l-8.162-8.162-24.418 80.994h31.067l24.118-79.997-.301-.997z" opacity="1" data-original="#0181fb"></path><path fill="#0592FB" d="m190.28 327.737-34.974 23.906 27.902 27.902c3.89 3.889 10.253 3.889 14.143 0l27.902-27.902z" opacity="1" data-original="#0592fb"></path><path fill="#0181FB" d="m181.059 334.04-25.752 17.603 27.902 27.902c3.89 3.889 10.253 3.889 14.143 0l8.462-8.461-23.896-23.897c-3.576-3.574-3.855-9.233-.859-13.147z" opacity="1" data-original="#0181fb"></path><path fill="#C7EEFD" d="M203.727 325.455h-26.893c-20.236 0-39.096-5.828-54.955-15.878v47.601a9.14 9.14 0 0 0 14.295 7.545l54.107-36.985 54.106 36.985a9.138 9.138 0 0 0 14.296-7.545v-47.602c-15.859 10.05-34.718 15.879-54.956 15.879z" opacity="1" data-original="#c7eefd"></path><path fill="#C76D36" d="M190.284 10.302c-63.743 0-115.416 23.417-115.416 86.183v61.09c.125-62.595 51.748-85.958 115.413-85.958 63.741 0 115.41 23.418 115.41 86.184v5.688l.002-.152V96.485c0-62.766-51.669-86.183-115.409-86.183z" opacity="1" data-original="#c76d36"></path><path fill="#AB5E2E" d="M106.063 92.962c1.747-55.041 44.573-78.582 99.787-82.165a240.08 240.08 0 0 0-15.565-.495c-63.743 0-115.416 23.417-115.416 86.183v61.09c.059-29.931 11.897-50.888 31.194-64.613z" opacity="1" data-original="#ab5e2e"></path><g fill="#FDD1A3"><path d="M74.865 224.653v-51.837H59.138c-11.713 0-21.211 9.292-21.211 20.751v25.119c0 11.462 9.498 20.752 21.211 20.752H75.96a100.414 100.414 0 0 1-1.095-14.785zM321.425 172.815h-15.733v51.837c0 5.023-.377 9.959-1.095 14.785h16.828c11.714 0 21.21-9.29 21.21-20.752v-25.119c0-11.458-9.496-20.751-21.21-20.751z" fill="#FDD1A3" opacity="1" data-original="#fdd1a3"></path><path d="M190.281 71.617c-63.742 0-115.416 23.418-115.416 86.184v66.852c0 55.669 45.654 100.802 101.969 100.802h26.893c56.314 0 101.964-45.133 101.964-100.802v-66.852c0-62.766-51.668-86.184-115.41-86.184z" fill="#FDD1A3" opacity="1" data-original="#fdd1a3"></path></g><path fill="#FFBB85" d="M106 224.653v-66.852c0-57.566 43.47-82.03 99.849-85.689a240.143 240.143 0 0 0-15.567-.495c-63.742 0-115.416 23.418-115.416 86.184v66.852c0 55.669 45.654 100.802 101.969 100.802h26.893c.709 0 1.415-.012 2.12-.026C150.514 324.311 106 279.621 106 224.653z" opacity="1" data-original="#ffbb85"></path><path fill="#5A5A5A" d="M392.663 334.622c-30.459 0-55.24 24.781-55.24 55.24s24.781 55.24 55.24 55.24c30.46 0 55.24-24.781 55.24-55.24s-24.78-55.24-55.24-55.24z" opacity="1" data-original="#5a5a5a"></path><circle cx="392.662" cy="389.862" r="30.614" fill="#9B9B9B" opacity="1" data-original="#9b9b9b"></circle><path fill="#828282" d="M384.772 389.862c0-12.892 7.973-23.915 19.253-28.428a30.513 30.513 0 0 0-11.361-2.187c-16.909 0-30.615 13.707-30.615 30.615 0 16.907 13.706 30.614 30.615 30.614 4.016 0 7.848-.781 11.361-2.187-11.281-4.513-19.253-15.536-19.253-28.427z" opacity="1" data-original="#828282"></path><path fill="#9B9B9B" d="M384.86 501.698a6.652 6.652 0 0 1-6.508-5.263l-4.891-22.852-2.002-.508a85.285 85.285 0 0 1-22.633-9.386l-1.777-1.057-19.628 12.707a6.635 6.635 0 0 1-3.615 1.069 6.644 6.644 0 0 1-4.707-1.95l-11.035-11.035a6.653 6.653 0 0 1-.88-8.322l12.707-19.628-1.058-1.775a85.337 85.337 0 0 1-9.387-22.633l-.508-2.002-22.852-4.891a6.655 6.655 0 0 1-5.262-6.508v-15.605a6.653 6.653 0 0 1 5.262-6.508l22.852-4.891.508-2.003a85.304 85.304 0 0 1 9.387-22.633l1.058-1.775-12.707-19.627a6.654 6.654 0 0 1 .88-8.323l11.035-11.035a6.644 6.644 0 0 1 4.707-1.95c1.25 0 2.507.351 3.615 1.069l19.628 12.707 1.774-1.057a85.312 85.312 0 0 1 22.636-9.386l2.002-.508 4.889-22.852a6.656 6.656 0 0 1 6.51-5.263h15.605a6.655 6.655 0 0 1 6.508 5.263l4.892 22.852 2.001.508a85.338 85.338 0 0 1 22.634 9.386l1.776 1.057 19.626-12.707a6.635 6.635 0 0 1 3.615-1.069 6.64 6.64 0 0 1 4.707 1.95l11.035 11.035a6.657 6.657 0 0 1 .882 8.323l-12.707 19.627 1.058 1.775a85.404 85.404 0 0 1 9.385 22.634l.51 2.002 22.85 4.891a6.657 6.657 0 0 1 5.264 6.508v15.605a6.656 6.656 0 0 1-5.264 6.508l-22.85 4.891-.51 2.002a85.384 85.384 0 0 1-9.385 22.633l-1.058 1.776 12.707 19.628a6.656 6.656 0 0 1-.882 8.322l-11.035 11.035a6.64 6.64 0 0 1-4.707 1.95 6.635 6.635 0 0 1-3.615-1.069l-19.626-12.707-1.776 1.057a85.327 85.327 0 0 1-22.634 9.386l-2.001.508-4.892 22.852a6.655 6.655 0 0 1-6.508 5.263H384.86zm7.803-167.076c-30.459 0-55.24 24.781-55.24 55.24s24.781 55.24 55.24 55.24c30.46 0 55.24-24.781 55.24-55.24s-24.78-55.24-55.24-55.24z" opacity="1" data-original="#9b9b9b"></path><path d="M186.942 212.337h13.942c4.143 0 7.5-3.358 7.5-7.5s-3.357-7.5-7.5-7.5h-12.946v-25.408c0-4.142-3.357-7.5-7.5-7.5s-7.5 3.358-7.5 7.5v26.491c.001 7.674 6.283 13.917 14.004 13.917zM128.455 155.635a7.5 7.5 0 0 0-7.5 7.5v23.201c0 4.142 3.357 7.5 7.5 7.5s7.5-3.358 7.5-7.5v-23.201a7.5 7.5 0 0 0-7.5-7.5zM252.105 193.836a7.5 7.5 0 0 0 7.5-7.5v-23.201c0-4.142-3.357-7.5-7.5-7.5s-7.5 3.358-7.5 7.5v23.201a7.5 7.5 0 0 0 7.5 7.5zM236.68 234.651c0-4.142-3.357-7.5-7.5-7.5s-7.5 3.358-7.5 7.5c0 17.411-14.086 31.575-31.4 31.575-17.313 0-31.399-14.165-31.399-31.575 0-4.142-3.357-7.5-7.5-7.5s-7.5 3.358-7.5 7.5c0 25.682 20.814 46.575 46.399 46.575s46.4-20.894 46.4-46.575zM392.663 351.747c-21.017 0-38.115 17.098-38.115 38.115 0 21.016 17.099 38.114 38.115 38.114s38.113-17.098 38.113-38.114c0-21.017-17.097-38.115-38.113-38.115zm0 61.229c-12.746 0-23.115-10.369-23.115-23.114 0-12.746 10.369-23.115 23.115-23.115 12.745 0 23.113 10.369 23.113 23.115 0 12.745-10.368 23.114-23.113 23.114z" fill="#000000" opacity="1" data-original="#000000"></path><path d="M447.989 396.749a7.502 7.502 0 0 0-9.17 5.33c-5.54 20.915-24.52 35.523-46.156 35.523-26.324 0-47.74-21.416-47.74-47.74s21.416-47.74 47.74-47.74c19.576 0 37.48 12.29 44.553 30.583a7.5 7.5 0 1 0 13.99-5.409c-9.289-24.029-32.816-40.174-58.543-40.174-34.595 0-62.74 28.145-62.74 62.74s28.145 62.74 62.74 62.74c28.434 0 53.376-19.196 60.656-46.682a7.5 7.5 0 0 0-5.33-9.171z" fill="#000000" opacity="1" data-original="#000000"></path><path d="m500.806 368.217-18.338-3.925a92.813 92.813 0 0 0-8.229-19.843l10.2-15.754c3.6-5.568 2.811-13.012-1.876-17.699l-11.032-11.032a14.06 14.06 0 0 0-10.014-4.149c-2.736 0-5.398.787-7.691 2.273l-15.751 10.198a92.772 92.772 0 0 0-19.842-8.229l-3.926-18.339c-1.389-6.485-7.21-11.192-13.842-11.192H384.86c-6.633 0-12.455 4.707-13.844 11.194l-3.923 18.337a92.765 92.765 0 0 0-19.844 8.23L331.5 298.091a14.122 14.122 0 0 0-7.694-2.275 14.062 14.062 0 0 0-10.011 4.146l-11.034 11.035c-3.127 3.125-4.508 7.475-4.021 11.677h-32.558v-9.128c22.494-15.518 38.85-39.165 44.674-66.606h10.568c15.831 0 28.71-12.674 28.71-28.252v-25.119c0-15.578-12.879-28.251-28.71-28.251h-8.233l.002-68.83c0-32.186-12.512-56.712-37.188-72.9-21.023-13.794-49.863-20.786-85.721-20.786s-64.701 6.993-85.726 20.783c-24.678 16.188-37.19 40.714-37.19 72.9l-.003 68.83h-8.227c-15.831 0-28.711 12.673-28.711 28.251v25.119c0 15.579 12.88 28.252 28.711 28.252H69.7c5.825 27.442 22.183 51.09 44.679 66.608v9.126h-55.79C26.283 322.672 0 348.664 0 380.611v66.287c0 7.157 5.823 12.98 12.981 12.98H57c4.143 0 7.5-3.358 7.5-7.5s-3.357-7.5-7.5-7.5H15v-64.267c0-23.676 19.554-42.938 43.589-42.938h55.79v19.505a16.598 16.598 0 0 0 8.873 14.715 16.704 16.704 0 0 0 7.765 1.923c3.365 0 6.612-1.003 9.39-2.902l13.997-9.568 12.168 12.168-21.515 71.364H93c-4.143 0-7.5 3.358-7.5 7.5s3.357 7.5 7.5 7.5h205.693c.27 3.26 1.641 6.424 4.067 8.85l11.032 11.032a14.058 14.058 0 0 0 10.01 4.149h.004a14.12 14.12 0 0 0 7.691-2.273l15.753-10.199a92.77 92.77 0 0 0 19.843 8.23L371.017 498c1.385 6.488 7.207 11.197 13.843 11.197h15.605c6.632 0 12.453-4.707 13.842-11.193l3.926-18.338a92.835 92.835 0 0 0 19.842-8.229l15.748 10.197a14.122 14.122 0 0 0 7.694 2.275c3.784 0 7.341-1.474 10.011-4.147l11.034-11.035c4.689-4.688 5.478-12.131 1.875-17.702l-10.198-15.751a92.822 92.822 0 0 0 8.229-19.843l18.338-3.925c6.486-1.388 11.194-7.209 11.194-13.842v-15.605c0-6.633-4.708-12.455-11.194-13.842zM313.191 224.653v-44.337h8.233c7.56 0 13.71 5.944 13.71 13.251v25.119c0 7.308-6.15 13.252-13.71 13.252h-8.486c.163-2.409.253-4.836.253-7.285zm-254.053 7.285c-7.561 0-13.711-5.945-13.711-13.252v-25.119c0-7.307 6.15-13.251 13.711-13.251h8.227v44.337c0 2.449.091 4.876.253 7.285zm23.23-135.453c0-26.811 10.234-47.118 30.418-60.358 18.277-11.989 45.075-18.326 77.498-18.326 32.421 0 59.218 6.337 77.493 18.326 20.183 13.239 30.416 33.546 30.416 60.358v9.524c-5.757-8.13-13.154-15.181-22.19-21.108-21.023-13.791-49.864-20.784-85.722-20.784s-64.7 6.993-85.725 20.784c-9.035 5.926-16.432 12.975-22.188 21.104zm-.003 128.168v-66.852c0-26.811 10.234-47.119 30.418-60.358 18.277-11.989 45.076-18.326 77.498-18.326 32.421 0 59.218 6.337 77.494 18.326 20.183 13.24 30.416 33.547 30.416 60.358v66.852c0 51.447-42.376 93.302-94.464 93.302h-26.893c-52.09 0-94.469-41.855-94.469-93.302zm128.494 108.066c14.364-.919 27.985-4.583 40.323-10.48v34.938c0 .609-.335 1.165-.871 1.447a1.638 1.638 0 0 1-1.693-.095zm2.698 20.013-21.508 21.509c-.627.627-1.377.721-1.768.721s-1.142-.094-1.768-.72l-21.509-21.509 23.276-15.911zm-81.616 5.798a1.642 1.642 0 0 1-1.689.096 1.636 1.636 0 0 1-.874-1.449V322.24c12.338 5.896 25.958 9.56 40.322 10.479zm172.928 86.347h-69.364l-3.632-12.044a7.5 7.5 0 0 0-14.362 4.33l2.326 7.714h-59.114l17.901-59.377c3.206 2.873 7.301 4.461 11.655 4.461s8.448-1.588 11.655-4.461l5.325 17.661a7.5 7.5 0 0 0 14.362-4.33l-7.633-25.316 12.169-12.169 13.998 9.569a16.573 16.573 0 0 0 9.389 2.901 16.71 16.71 0 0 0 7.767-1.924 16.6 16.6 0 0 0 8.871-14.714v-19.505h40.517l4.387 6.776a92.737 92.737 0 0 0-8.229 19.843l-18.338 3.925c-6.485 1.388-11.192 7.209-11.192 13.842v15.605c0 6.633 4.707 12.454 11.192 13.842l18.338 3.925a92.852 92.852 0 0 0 8.229 19.843zM497 396.981l-22.183 4.748a7.502 7.502 0 0 0-5.699 5.484l-.51 2.005a77.911 77.911 0 0 1-8.56 20.643l-1.058 1.776a7.502 7.502 0 0 0 .147 7.914l12.335 19.053-10.069 10.069-19.052-12.336a7.5 7.5 0 0 0-7.912-.15l-1.775 1.057a77.842 77.842 0 0 1-20.643 8.562l-2.001.508a7.499 7.499 0 0 0-5.489 5.7l-4.749 22.184h-14.238l-4.748-22.184a7.499 7.499 0 0 0-5.49-5.7l-1.999-.507a77.809 77.809 0 0 1-20.646-8.563l-1.777-1.057a7.499 7.499 0 0 0-7.91.15l-19.054 12.336-10.068-10.068 12.336-19.055a7.5 7.5 0 0 0 .147-7.914l-1.056-1.773a77.81 77.81 0 0 1-8.563-20.641l-.508-2.003a7.499 7.499 0 0 0-5.7-5.49l-22.183-4.748v-14.24l22.183-4.748a7.499 7.499 0 0 0 5.7-5.49l.507-1.999a77.844 77.844 0 0 1 8.562-20.642l1.058-1.775a7.502 7.502 0 0 0-.147-7.914l-12.336-19.054 10.068-10.068 19.054 12.335a7.5 7.5 0 0 0 7.913.148l1.773-1.055a77.816 77.816 0 0 1 20.645-8.562l2.002-.508a7.498 7.498 0 0 0 5.49-5.701l4.746-22.183h14.24l4.749 22.184a7.502 7.502 0 0 0 5.489 5.7l1.999.507a77.863 77.863 0 0 1 20.645 8.563l1.776 1.057a7.502 7.502 0 0 0 7.912-.15l19.052-12.335 10.07 10.069-12.336 19.053a7.501 7.501 0 0 0-.147 7.915l1.056 1.771a77.854 77.854 0 0 1 8.561 20.65l.51 2.002a7.5 7.5 0 0 0 5.699 5.483L497 382.742z" fill="#000000" opacity="1" data-original="#000000"></path></g></svg>